# File created by Blade
# Date/Time:  Wed Jan 21 17:57:11 2015
# Frame Rate: 120.000 fps
#------------------------------------------------------
:FULLY-SPECIFIED
:DEGREES
681
root 19.391009 29.011436 -15.321083 -106.101909 2.579159 -181.787064
Spine 68.329276 -0.197522 -2.319696
Head 176.285708 0.480084 187.237321
LeftShoulder 28.254944 -40.491684 6.082129
LeftArm 29.997083 53.084254 6.599509
LeftForeArm 15.029331 0.000000 22.453501
LeftHand 2.418407 -0.000000 -20.722302
LeftHandThumb1 -26.253704 0.000000 33.147579
RightShoulder 16.754689 -4.391824 -19.958333
RightArm 23.617036 8.128144 -1.300886
RightForeArm -38.087681 0.000000 31.069826
RightHand 5.391621 -0.000000 12.054048
RightHandThumb1 -24.326973 -0.000000 -32.862282
LeftUpLeg -79.411354 32.166238 2.154331
LeftLeg -0.351146 -0.000000 0.000000
LeftFoot -7.419567 22.337265 -21.082907
LeftToeBase 32.246376 -0.000000 -0.000000
RightUpLeg -78.565488 -34.673128 -8.182998
RightLeg -0.217300 -0.000000 0.000000
RightFoot -12.249627 -0.284395 28.253963
RightToeBase 31.863534 -0.000000 -0.000000
682
root 19.402639 29.005840 -15.327111 -106.142220 2.529173 -181.773505
Spine 68.323144 -0.179986 -2.281116
Head 176.447639 0.462611 187.008206
LeftShoulder 28.192461 -40.590834 6.048819
LeftArm 30.037039 53.159347 6.509214
LeftForeArm 15.710787 0.000000 22.843282
LeftHand 2.453494 0.000000 -20.577120
LeftHandThumb1 -26.253704 0.000000 33.147579
RightShoulder 16.758034 -4.519941 -19.946431
RightArm 23.929240 7.753267 -1.466057
RightForeArm -38.553312 0.000000 30.588799
RightHand 5.446173 -0.000000 12.058525
RightHandThumb1 -24.326973 -0.000000 -32.862282
LeftUpLeg -79.309301 32.157610 2.079471
LeftLeg -0.600264 -0.000000 0.000000
LeftFoot -7.439060 22.494396 -21.114152
LeftToeBase 32.258608 -0.000000 -0.000000
RightUpLeg -78.457493 -34.661459 -8.258151
RightLeg -0.246160 -0.000000 0.000000
RightFoot -12.140264 -0.510077 28.436747
RightToeBase 31.572020 -0.000000 -0.000000
683
root 19.409560 28.996606 -15.333600 -106.166507 2.476883 -181.731999
Spine 68.307658 -0.170225 -2.198088
Head 176.601426 0.661622 186.690040
LeftShoulder 28.062426 -40.670734 5.990477
LeftArm 30.171491 53.154399 6.481190
LeftForeArm 16.432353 -0.000000 23.305284
LeftHand 2.356623 0.000000 -20.259419
LeftHandThumb1 -26.253704 0.000000 33.147579
RightShoulder 16.736647 -4.641263 -19.956610
RightArm 24.207825 7.514698 -1.599141
RightForeArm -38.788976 -0.000000 30.132255
RightHand 5.332015 -0.000000 11.955482
RightHandThumb1 -24.326973 -0.000000 -32.862282
LeftUpLeg -79.296121 32.170834 1.900890
LeftLeg -0.831692 -0.000000 0.000000
LeftFoot -7.585525 22.655196 -21.228329
LeftToeBase 32.447208 -0.000000 -0.000000
RightUpLeg -78.363113 -34.642183 -8.281967
RightLeg -0.309876 -0.000000 0.000000
RightFoot -12.006190 -0.679508 28.667212
RightToeBase 31.595760 -0.000000 -0.000000
684
root 19.414253 28.985486 -15.341949 -106.195865 2.441683 -181.647816
Spine 68.317072 -0.099464 -2.038462
Head 176.760602 0.742163 186.314844
LeftShoulder 27.912397 -40.668057 5.969871
LeftArm 30.295854 52.936787 6.409491
LeftForeArm 17.042077 -0.000000 23.824037
LeftHand 2.210285 0.000000 -19.856106
LeftHandThumb1 -26.253704 0.000000 33.147579
RightShoulder 16.760199 -4.595441 -19.976723
RightArm 24.274848 7.171318 -1.648733
RightForeArm -38.932380 0.000000 29.750706
RightHand 5.453792 -0.000000 12.069307
RightHandThumb1 -24.326973 -0.000000 -32.862282
LeftUpLeg -79.212712 32.221188 1.769712
LeftLeg -1.129948 -0.000000 0.000000
LeftFoot -7.812423 22.899397 -21.415396
LeftToeBase 32.601314 -0.000000 -0.000000
RightUpLeg -78.235008 -34.582050 -8.304108
RightLeg -0.431217 -0.000000 0.000000
RightFoot -11.868117 -0.719963 28.855299
RightToeBase 31.228016 -0.000000 -0.000000
685
root 19.417711 28.972051 -15.351130 -106.206680 2.366332 -181.509694
Spine 68.331055 -0.059058 -1.821485
Head 176.919824 1.363791 185.963797
LeftShoulder 27.648452 -40.593142 5.962126
LeftArm 30.421243 52.538685 6.313783
LeftForeArm 17.493650 -0.000000 24.253239
LeftHand 2.160340 -0.000000 -19.457793
LeftHandThumb1 -26.253704 0.000000 33.147579
RightShoulder 16.759854 -4.640061 -20.073022
RightArm 24.365550 6.962786 -1.739270
RightForeArm -38.950043 0.000000 29.427319
RightHand 5.359698 0.000000 12.087623
RightHandThumb1 -24.326973 -0.000000 -32.862282
LeftUpLeg -79.228919 32.335682 1.618078
LeftLeg -1.332189 -0.000000 0.000000
LeftFoot -8.014763 22.999924 -21.457460
LeftToeBase 32.922027 -0.000000 -0.000000
RightUpLeg -78.131614 -34.491833 -8.199955
RightLeg -0.607776 -0.000000 0.000000
RightFoot -11.715986 -0.749422 29.007593
RightToeBase 31.063178 -0.000000 -0.000000
686
root 19.418656 28.955365 -15.358997 -106.211744 2.307473 -181.352695
Spine 68.354435 0.011819 -1.573964
Head 177.127742 1.546404 185.488849
LeftShoulder 27.391501 -40.548444 5.945149
LeftArm 30.530407 52.045722 6.197035
LeftForeArm 17.926990 -0.000000 24.681828
LeftHand 2.085938 -0.000000 -19.183562
LeftHandThumb1 -26.253704 0.000000 33.147579
RightShoulder 16.722250 -4.705247 -20.163796
RightArm 24.417296 6.844413 -1.837727
RightForeArm -38.901606 -0.000000 29.133317
RightHand 5.446703 0.000000 12.224195
RightHandThumb1 -24.326973 -0.000000 -32.862282
LeftUpLeg -79.320717 32.498623 1.381309
LeftLeg -1.473613 -0.000000 0.000000
LeftFoot -8.208547 22.940593 -21.390582
LeftToeBase 33.097985 -0.000000 -0.000000
RightUpLeg -77.989953 -34.380934 -8.139194
RightLeg -0.833642 -0.000000 0.000000
RightFoot -11.545633 -0.762636 29.154096
RightToeBase 30.989847 -0.000000 -0.000000
